# xmcd
#
# Track frame offsets:
#	150
#	22314
#	45335
#	71512
#	93537
#	118105
#	121127
#	148070
#	165665
#
# Disc length: 2595 seconds
#
# Revision: 1
# Processed by: cddbd v1.5.1PL2 Copyright (c) Steve Scherf et al.
# Submitted via: EasyCDDAExtractor 9.0.0.1
#
DISCID=7c0a2109
DTITLE=Black Sabbath - Eagles Ballroom Milwaukee 26-02-94 Disc 2
DYEAR=1994
DGENRE=Hard Rock
TTITLE0=The Wizard
TTITLE1=Cross Of Thorns
TTITLE2=Symptom Of The Universe
TTITLE3=Drum Solo
TTITLE4=Headless Cross
TTITLE5=Guitar Solo
TTITLE6=Paranoid 
TTITLE7=Iron Man
TTITLE8=Sabbath Bloody Sabbath
EXTD=
EXTT0=
EXTT1=
EXTT2=
EXTT3=
EXTT4=
EXTT5=
EXTT6=
EXTT7=
EXTT8=
PLAYORDER=
